<svg xmlns="http://www.w3.org/2000/svg" xmlns:v="https://vecta.io/nano" viewBox="0 0 59 59"><linearGradient id="A" gradientUnits="userSpaceOnUse" x1="5.938" y1="53.317" x2="29.5" y2="53.317"><stop offset="0" stop-color="#1d131a"></stop><stop offset="1" stop-color="#b91d73"></stop></linearGradient><path d="M27.2 51.3a2.26 2.26 0 0 0-2.3 2.3v.9a.47.47 0 0 1-.5.5.47.47 0 0 1-.5-.5v-3.6a2.69 2.69 0 1 0-5.4 0v.9a.47.47 0 0 1-.5.5.47.47 0 0 1-.5-.5v-.5a2.69 2.69 0 0 0-2.7-2.7 2.69 2.69 0 0 0-2.7 2.7v3.2a.47.47 0 0 1-.5.5.47.47 0 0 1-.5-.5V54a2.69 2.69 0 0 0-2.7-2.7c-1.5 0-2.5 1.2-2.5 2.7v4.5h1.8V54c0-.5.4-.9.9-.9s.9.4.9.9v.5a2.26 2.26 0 0 0 2.3 2.3 2.26 2.26 0 0 0 2.3-2.3v-3.2c0-.5.4-.9.9-.9s.9.4.9.9v.5a2.26 2.26 0 0 0 2.3 2.3 2.26 2.26 0 0 0 2.3-2.3v-.9c0-.5.4-.9.9-.9s.9.4.9.9v3.6a2.26 2.26 0 0 0 2.3 2.3 2.26 2.26 0 0 0 2.3-2.3v-.9a.47.47 0 0 1 .5-.5.47.47 0 0 1 .5.5v5h1.8v-5c-.2-1.3-1.2-2.3-2.5-2.3z" fill="url(#A)"></path><linearGradient id="B" gradientUnits="userSpaceOnUse" x1="20.438" y1="29.5" x2="27.688" y2="29.5"><stop offset="0" stop-color="#1d131a"></stop><stop offset="1" stop-color="#b91d73"></stop></linearGradient><path d="M24.1 20.4c-2 0-3.6 1.6-3.6 3.6v10.9c0 2 1.6 3.6 3.6 3.6s3.6-1.6 3.6-3.6V24.1c0-2-1.6-3.7-3.6-3.7zm1.8 14.5a1.79 1.79 0 1 1-3.6 0V24.1a1.79 1.79 0 1 1 3.6 0v10.8z" fill="url(#B)"></path><linearGradient id="C" gradientUnits="userSpaceOnUse" x1=".5" y1="29.5" x2="58.5" y2="29.5"><stop offset="0" stop-color="#1d131a"></stop><stop offset="1" stop-color="#b91d73"></stop></linearGradient><path d="M57.6 25.9c-2.2 0-4 1.5-4.4 3.6h-1a4.48 4.48 0 0 0-4.5 4.5v.1a6.91 6.91 0 0 0-4.5 2.4v-5.6c0-2.8-.5-5.6-1.6-8.2l-.4-.7-.2-.8 2.3-.8c2-.7 3.6-2.1 4.5-3.9l.5-1.1c.1-.3.1-.6-.1-.9l-1.8-2.7c-.2-.2-.4-.4-.7-.4s-.5.1-.7.3l-1.8 1.8c-.1.1-.2.2-.2.4-.5 1.5-1.6 2.8-3 3.5l-.8.4c-.5-.4-1-.8-1.7-1V16c2.6-.4 4.5-2.7 4.5-5.4V6.8h.7c1.6 0 3-.9 3.7-2.3.2-.4 0-1-.4-1.2h-.1l-1.3-.4 1-.9a.85.85 0 0 0 0-1.3c-.2-.2-.4-.3-.6-.3H34c-.2 0-.5.1-.6.3l-1.5 1.5h-2.3c-.5 0-.9.4-.9.9 0 .1 0 .2.1.3l1.7 4.4v2.5c0 .5.4.9.9.9h.1a5.32 5.32 0 0 0 1.7 3.1V16c-.5.3-1 .6-1.4 1L27 4.7c-.4-1.1-1.7-1.7-2.9-1.3a2.1 2.1 0 0 0-1.3 1.3l-5.1 13.7c0 .1 0 .2-.1.3v18.1h-1c-.4-2.5-2.1-4.5-4.5-5.2-.3-2.9-2.6-5.2-5.5-5.6-.4-3.1-3.1-5.5-6.3-5.5v1.8a4.48 4.48 0 0 1 4.5 4.5c0 .5.4.9.9.9 2.5 0 4.5 2 4.5 4.6 0 .5.3.8.8.9 2.2.4 3.8 2.3 3.8 4.5 0 .5.4.9.9.9h1.8v1.8c0 .5.4.9.9.9h.9v3.6c0 .4.2.7.6.9l5.4 1.8h.3c.5 0 .9-.4.9-.9v-5.4h3.6c0 .5.4.9.9.9l-.9 15.4c0 .5.4.9.9 1h.1 3.6c.5 0 .8-.3.9-.8l.6-4.6.3 4.5c0 .5.4.8.9.8H41c.5 0 .9-.4.9-.9V42.2c.5 0 .9-.4.9-.9 0-3 2.4-5.4 5.4-5.4.5 0 .9-.4.9-.9v-1a2.69 2.69 0 0 1 2.7-2.7H54c.5 0 .9-.4.9-.9a2.69 2.69 0 0 1 2.7-2.7h.9v-1.8h-.9zm-22.7-4.1c0-.8.5-1.4.9-1.4s.9.6.9 1.5l1.7 18.5h-1.8l-1.7-18.6zm1.9 20.4h1.8c0 .5-.4.9-.9.9s-.9-.4-.9-.9zm8-27.6l.9-.9.9 1.4-.3.6c-.7 1.4-2 2.5-3.5 3l-2.2.7c0-.1-.1-.2-.1-.3l.5-.2c1.7-.9 3.1-2.4 3.8-4.3zM32.2 4.1c.2 0 .5-.1.6-.3l1.5-1.5h8.3l-.3.3a.85.85 0 0 0 0 1.3c.3.1.4.1.5.2l1.5.5c-.4.3-.9.4-1.4.4H34c-.5 0-.9.4-.9.9v.9h-1.2l-1.1-2.7h1.4zm0 5.5v-.9H34c.5 0 .9-.4.9-.9v-1h5.4v3.6c0 1.9-1.5 3.5-3.5 3.6h0-.1c-.8 0-1.6-.3-2.3-.8h0c-.8-.7-1.3-1.7-1.3-2.8 0-.4-.4-.8-.9-.8zm3.6 6.2v.4l-.9-.2v-.5c.3.2.6.3.9.3zm-1.7 1.9l2.1.3c1.5.3 2.7 1.4 3 2.9l.3 1.4v.2l.3.7c1 2.4 1.5 5 1.4 7.5v9.5h-1l-1.7-18.6c.1-1.6-1.1-3.1-2.7-3.2-1.5 0-2.7 1.4-2.7 3.3l1.7 18.5h-2.6V20.6c0-1.3.8-2.4 1.9-2.9zM24.6 5.3c.1-.2.4-.3.6-.2.1 0 .1.1.2.2l3.3 8.8h-7.4l3.3-8.8zm-4 10.6h8.7l.7 1.8H19.9l.7-1.8zM25 45.5l-3.6-1.2v-.8l3.6 1.2v.8zm0-2.8l-3.6-1.2v-.3H25v1.5zm.9-3.2h-6.3v-20h10.9v19.9h-4.6zm8.2 17.2h-1.9l.8-14.5h1.9c0 .8.3 1.5.9 2l-1.7 12.5zm6.3 0h-1.9l-.8-11.8a2.69 2.69 0 0 0 2.7-2.7v14.5z" fill="url(#C)"></path></svg>